<svg version="1.1" id="Layer_1" xmlns="http://www.w3.org/2000/svg" xmlns:xlink="http://www.w3.org/1999/xlink" x="0px" y="0px"
	 width="100%" viewBox="0 0 720 720" enable-background="new 0 0 720 720" xml:space="preserve">
<path fill="#2666A4" opacity="1.000000" stroke="none" 
	d="
M103.000000,721.000000 
	C100.299828,721.000000 97.599648,721.000000 94.206467,720.728516 
	C86.780510,718.109314 79.862701,716.185181 73.346100,713.341675 
	C42.605011,699.927795 20.774767,677.638062 8.932453,646.218079 
	C5.279352,636.525696 3.589029,626.093445 1.000001,616.000000 
	C1.000000,446.975098 1.000000,277.950195 1.073892,108.075043 
	C2.081727,102.342216 2.794036,97.404617 3.989894,92.587044 
	C8.078662,76.115257 15.094660,61.043598 26.096741,48.203407 
	C26.794289,49.606678 27.355663,50.690361 28.280771,52.476192 
	C33.147812,47.353817 37.580101,42.688995 42.352249,37.962902 
	C46.477802,34.614136 50.263504,31.326649 54.356983,27.892269 
	C57.424549,25.868984 60.184338,23.992596 63.310616,22.058941 
	C65.624977,21.074202 67.504395,19.946022 69.532654,19.254274 
	C77.958282,16.380678 86.428818,13.638732 95.197540,10.857054 
	C96.054314,10.322253 96.596405,9.778868 97.449768,9.213676 
	C98.176743,9.174552 98.592422,9.157234 99.227623,9.348505 
	C100.325813,9.098544 101.204483,8.639995 102.098129,8.166353 
	C102.113098,8.151259 102.108521,8.110564 102.544403,8.107880 
	C108.002831,7.419260 113.025383,6.733326 118.424622,6.220134 
	C121.102806,6.596699 123.404266,6.978269 125.705826,6.978851 
	C240.508606,7.007907 355.311493,6.912252 470.114105,7.048290 
	C518.064636,7.105110 566.014648,7.646835 614.378235,7.992697 
	C621.026123,8.419177 627.085510,12.053785 633.729065,9.505947 
	C633.027039,7.681891 632.512390,6.344766 632.388794,4.963924 
	C642.867493,9.010553 653.415588,12.245833 662.943237,17.376190 
	C680.651855,26.911692 694.356567,41.027786 705.096375,58.054825 
	C712.705688,70.118713 717.337280,83.349716 721.000000,97.000000 
	C721.000000,273.691559 721.000000,450.383148 720.722412,627.784790 
	C716.125427,646.977417 708.907471,664.050903 696.128906,678.045410 
	C696.217163,676.242310 696.341370,674.832397 696.465576,673.422546 
	C696.097229,673.119934 695.728882,672.817383 695.360596,672.514771 
	C691.272766,677.413635 684.874512,679.714478 681.656555,686.034668 
	C676.812683,689.478210 672.296875,692.844727 667.835144,696.281433 
	C667.382446,696.630127 667.255127,697.401367 666.751587,698.009766 
	C666.526367,698.042969 666.075195,698.104492 665.754944,698.118286 
	C664.939575,698.736816 664.444458,699.341553 663.609253,700.010071 
	C661.868042,700.748474 660.466980,701.423035 658.718140,702.105103 
	C657.219421,703.043152 656.068359,703.973694 654.564270,704.975830 
	C647.514832,707.431763 640.818481,709.816101 633.804565,712.181030 
	C632.947571,712.717041 632.408081,713.272461 631.492188,713.859070 
	C629.410706,714.242188 627.705627,714.594055 625.822021,714.748901 
	C625.047119,714.968262 624.450806,715.384583 623.498230,715.828979 
	C622.428284,715.888489 621.714600,715.919922 620.797974,715.723999 
	C619.732910,715.704712 618.870728,715.912903 617.689819,716.115479 
	C616.947571,716.134094 616.524109,716.158325 615.657593,716.135132 
	C610.420227,716.395996 605.625977,716.972473 600.831604,716.973877 
	C441.391876,717.020691 281.952148,717.012634 122.512436,717.012451 
	C117.347725,717.012451 112.178474,717.140503 107.020035,716.960083 
	C103.976601,716.853699 102.655426,717.974121 103.000000,721.000000 
M333.732819,398.567200 
	C335.690765,397.027313 337.827087,395.666565 339.579926,393.920746 
	C366.251526,367.356445 392.914124,340.782806 419.480072,314.113007 
	C427.136627,306.426544 426.976074,296.568634 419.300476,288.870300 
	C394.495880,263.992340 369.666046,239.139435 344.799622,214.323273 
	C337.761261,207.299118 328.171417,207.096573 321.180756,214.057861 
	C293.927948,241.196045 266.746979,268.406738 239.633499,295.684113 
	C232.431732,302.929443 232.210281,312.558319 239.358810,319.754303 
	C264.349274,344.910645 289.544586,369.863373 314.645966,394.909668 
	C319.937836,400.189911 326.069885,401.343719 333.732819,398.567200 
M472.078003,421.417236 
	C449.695770,398.879883 427.313568,376.342529 405.522491,354.400421 
	C396.782776,362.862457 388.697998,370.690308 379.788361,379.316864 
	C384.203583,383.370758 388.892944,387.376465 393.246277,391.719025 
	C447.136139,445.475281 500.946930,499.310822 554.928772,552.974365 
	C557.351257,555.382507 561.052307,557.161438 564.432495,557.816528 
	C572.206238,559.323303 579.126770,555.370728 582.582397,548.434570 
	C585.968323,541.638367 584.368469,533.426575 578.345764,527.414978 
	C543.100830,492.235413 507.833984,457.077759 472.078003,421.417236 
M351.935822,524.219849 
	C349.809082,523.887024 347.682556,523.265076 345.555573,523.263428 
	C281.912170,523.215576 218.268738,523.212769 154.625351,523.253601 
	C146.693375,523.258667 141.097076,527.278137 139.017212,534.078064 
	C136.397247,542.643738 138.581482,551.860291 145.146988,555.545837 
	C148.544373,557.452942 153.024948,558.135437 157.022797,558.157410 
	C191.674820,558.347778 226.328354,558.269348 260.981445,558.256653 
	C289.137054,558.246338 317.292755,558.181030 345.448273,558.224731 
	C351.203888,558.233704 355.929382,556.416443 359.110901,551.490662 
	C364.825531,542.642944 361.728302,529.891724 351.935822,524.219849 
M280.296783,385.204590 
	C261.343689,366.291656 242.402496,347.366791 223.431808,328.471497 
	C215.413696,320.485260 206.178528,320.503998 198.538574,328.406647 
	C196.341537,330.679260 194.083420,332.893768 191.823212,335.104156 
	C184.240448,342.519775 183.906570,351.909760 191.343964,359.347870 
	C219.924530,387.931091 248.566727,416.452942 277.264191,444.918793 
	C283.843536,451.445038 292.780121,451.439270 299.656616,445.177521 
	C302.361450,442.714508 304.854126,440.019348 307.460693,437.447449 
	C315.340698,429.672302 315.524139,420.218353 307.751343,412.406769 
	C298.831116,403.441986 289.782196,394.605194 280.296783,385.204590 
M363.506866,163.852356 
	C360.628693,166.613113 357.725006,169.347839 354.876953,172.139297 
	C344.761261,182.053940 344.833313,190.405212 354.877930,200.297607 
	C368.395782,213.610519 381.833038,227.005554 395.265503,240.404816 
	C408.935577,254.041077 422.509277,267.774231 436.218842,281.370514 
	C444.764557,289.845612 453.443695,289.766846 461.918823,281.387421 
	C464.285889,279.047058 466.685272,276.738281 469.012268,274.358704 
	C475.953186,267.261017 476.058899,257.817902 469.019897,250.781143 
	C440.897217,222.667465 412.718628,194.609619 384.518463,166.573624 
	C378.175354,160.267426 372.335785,159.458206 363.506866,163.852356 
z"/>
<path fill="#3E7DBB" opacity="1.000000" stroke="none" 
	d="
M613.964905,7.968085 
	C566.014648,7.646835 518.064636,7.105110 470.114105,7.048290 
	C355.311493,6.912252 240.508606,7.007907 125.705826,6.978851 
	C123.404266,6.978269 121.102806,6.596699 118.315903,5.845265 
	C116.870659,4.864568 115.949921,4.230070 114.943901,4.034641 
	C111.349174,3.336337 107.725510,2.787017 104.500435,2.137111 
	C106.592049,1.728596 108.296028,1.364298 110.000000,1.000000 
	C112.041664,1.000000 114.083336,1.000000 116.657166,1.152221 
	C117.459549,1.202961 117.729774,1.101479 118.000000,0.999999 
	C280.020905,1.000000 442.041779,1.000000 604.623169,1.154542 
	C605.455811,1.206053 605.727905,1.103023 606.000000,0.999996 
	C607.388916,1.000000 608.777771,1.000000 610.405640,1.257437 
	C610.758850,2.385042 610.628357,3.399857 611.039001,4.094825 
	C611.856934,5.478912 612.972351,6.687187 613.964905,7.968085 
z"/>
<path fill="#E6E7E7" opacity="1.000000" stroke="none" 
	d="
M721.000000,96.531342 
	C717.337280,83.349716 712.705688,70.118713 705.096375,58.054825 
	C694.356567,41.027786 680.651855,26.911692 662.943237,17.376190 
	C653.415588,12.245833 642.867493,9.010553 632.010437,4.890262 
	C625.827393,3.573545 620.413696,2.286775 615.000000,1.000002 
	C650.256653,1.000000 685.513306,1.000000 721.000000,1.000000 
	C721.000000,32.687191 721.000000,64.374939 721.000000,96.531342 
z"/>
<path fill="#E0E0E0" opacity="1.000000" stroke="none" 
	d="
M696.164917,678.438660 
	C708.907471,664.050903 716.125427,646.977417 720.722412,628.247437 
	C721.000000,658.926147 721.000000,689.852234 721.000000,721.000000 
	C690.979492,721.000000 660.958374,721.000000 630.785522,720.826294 
	C633.936401,719.451843 637.239136,718.251099 640.518066,717.056641 
	C640.494324,717.062927 640.539307,717.083557 640.949585,717.130737 
	C641.733459,716.795654 642.106995,716.413269 642.837219,716.109985 
	C646.745789,714.807861 650.297791,713.426636 654.158081,712.030396 
	C654.666992,711.683777 654.867554,711.352295 655.033997,711.019531 
	C654.999878,711.018250 655.012817,711.085388 655.345703,711.137695 
	C656.143250,710.811646 656.607849,710.433228 657.044434,710.033203 
	C657.016418,710.011597 657.013367,710.082275 657.344238,710.122925 
	C658.137207,709.794312 658.599365,709.424988 659.025269,709.050293 
	C658.989075,709.044861 659.051880,709.083557 659.415283,709.132080 
	C666.538635,704.560120 673.298645,699.939697 680.350464,695.174561 
	C680.923035,694.699951 681.203857,694.370056 681.649170,694.038208 
	C682.042603,693.915955 682.128052,693.729858 682.383057,693.307495 
	C687.185730,688.237549 691.675354,683.338135 696.164917,678.438660 
z"/>
<path fill="#E7E7E7" opacity="1.000000" stroke="none" 
	d="
M0.999999,78.000000 
	C1.000000,52.400341 1.000000,26.800682 1.000000,1.000000 
	C31.020596,1.000000 61.041637,1.000000 91.463196,1.362391 
	C88.835701,2.800754 85.845711,4.002508 82.773270,4.931544 
	C67.086403,9.674876 52.923553,17.257654 40.172657,27.528742 
	C26.484253,38.555004 15.482753,51.734081 7.591474,67.509956 
	C5.752713,71.185913 3.215726,74.512604 0.999999,78.000000 
z"/>
<path fill="#4180BD" opacity="1.000000" stroke="none" 
	d="
M103.468658,721.000000 
	C102.655426,717.974121 103.976601,716.853699 107.020035,716.960083 
	C112.178474,717.140503 117.347725,717.012451 122.512436,717.012451 
	C281.952148,717.012634 441.391876,717.020691 600.831604,716.973877 
	C605.625977,716.972473 610.420227,716.395996 615.527222,716.472229 
	C614.638977,719.288940 609.583374,716.287842 610.000000,721.000000 
	C441.312439,721.000000 272.624878,721.000000 103.468658,721.000000 
z"/>
<path fill="#E7E7E7" opacity="1.000000" stroke="none" 
	d="
M64.999985,721.000000 
	C43.737076,721.000000 22.474150,721.000000 1.000000,721.000000 
	C1.000000,698.312866 1.000000,675.625122 1.349916,652.542114 
	C6.323671,660.465393 10.456523,669.107178 15.676206,677.033203 
	C25.739338,692.313965 38.773502,704.603394 54.887417,713.557251 
	C58.516365,715.573730 61.642433,718.495178 64.999985,721.000000 
z"/>
<path fill="#A6A7A9" opacity="1.000000" stroke="none" 
	d="
M1.000001,616.468628 
	C3.589029,626.093445 5.279352,636.525696 8.932453,646.218079 
	C20.774767,677.638062 42.605011,699.927795 73.346100,713.341675 
	C79.862701,716.185181 86.780510,718.109314 93.756729,720.728516 
	C87.978844,721.000000 81.957695,721.000000 75.429001,720.648804 
	C69.694542,717.549438 64.324875,715.039978 59.264534,712.013367 
	C32.322014,695.899048 13.163365,673.385986 3.234219,643.346069 
	C2.828524,642.118652 1.759820,641.110352 1.000006,640.000000 
	C1.000000,632.312439 1.000000,624.624817 1.000001,616.468628 
z"/>
<path fill="#CBCCCD" opacity="1.000000" stroke="none" 
	d="
M0.999999,78.468658 
	C3.215726,74.512604 5.752713,71.185913 7.591474,67.509956 
	C15.482753,51.734081 26.484253,38.555004 40.172657,27.528742 
	C52.923553,17.257654 67.086403,9.674876 82.773270,4.931544 
	C85.845711,4.002508 88.835701,2.800754 91.931854,1.362391 
	C97.688042,1.000000 103.376083,1.000000 109.532059,1.000000 
	C108.296028,1.364298 106.592049,1.728596 104.191811,2.153984 
	C102.967979,2.530725 102.440407,2.846376 101.535416,3.097369 
	C100.143120,3.096649 99.128258,3.160586 97.721054,3.203761 
	C86.553368,7.125530 75.778015,11.068062 64.695602,15.031349 
	C63.898861,15.353317 63.409180,15.654528 62.950779,15.971563 
	C62.982063,15.987390 62.983326,15.917279 62.737713,16.020758 
	C62.301239,16.408152 62.110378,16.692068 61.955242,16.977203 
	C61.990967,16.978422 61.982742,16.907406 61.681293,16.927662 
	C60.908909,17.294458 60.437973,17.640999 59.983978,17.995438 
	C60.000916,18.003334 59.989330,17.967831 59.677345,18.028111 
	C58.548176,18.703062 57.730991,19.317736 56.950134,19.920876 
	C56.986458,19.909342 56.920757,19.870693 56.571587,19.910885 
	C51.476875,23.587397 46.731331,27.223713 41.687626,31.020901 
	C36.246498,36.749119 31.103531,42.316467 25.960566,47.883816 
	C15.094660,61.043598 8.078662,76.115257 3.989894,92.587044 
	C2.794036,97.404617 2.081727,102.342216 1.073892,107.612404 
	C1.000000,98.312439 1.000000,88.624878 0.999999,78.468658 
z"/>
<path fill="#D1D1D1" opacity="1.000000" stroke="none" 
	d="
M1.000006,640.460632 
	C1.759820,641.110352 2.828524,642.118652 3.234219,643.346069 
	C13.163365,673.385986 32.322014,695.899048 59.264534,712.013367 
	C64.324875,715.039978 69.694542,717.549438 74.960739,720.648804 
	C71.969406,721.000000 68.938812,721.000000 65.454102,721.000000 
	C61.642433,718.495178 58.516365,715.573730 54.887417,713.557251 
	C38.773502,704.603394 25.739338,692.313965 15.676206,677.033203 
	C10.456523,669.107178 6.323671,660.465393 1.349916,652.073486 
	C1.000000,648.307068 1.000000,644.614197 1.000006,640.460632 
z"/>
<path fill="#5797D5" opacity="1.000000" stroke="none" 
	d="
M610.466125,721.000000 
	C609.583374,716.287842 614.638977,719.288940 615.970337,716.519653 
	C616.524109,716.158325 616.947571,716.134094 617.895874,716.329590 
	C619.280823,716.350037 620.140869,716.150696 621.000854,715.951416 
	C621.714600,715.919922 622.428284,715.888489 623.811768,715.864014 
	C624.987915,715.562622 625.494263,715.254272 626.000610,714.945923 
	C627.705627,714.594055 629.410706,714.242188 631.810425,713.870667 
	C633.044128,713.300842 633.583069,712.750671 634.122070,712.200439 
	C640.818481,709.816101 647.514832,707.431763 654.914307,704.969116 
	C656.766846,703.959778 657.916382,703.028687 659.065918,702.097656 
	C660.466980,701.423035 661.868042,700.748474 663.926270,699.984985 
	C665.080627,699.298889 665.577881,698.701721 666.075195,698.104492 
	C666.075195,698.104492 666.526367,698.042969 667.082520,697.988647 
	C668.536987,697.745911 669.435303,697.557556 670.333557,697.369202 
	C669.818298,699.257690 668.680664,700.234924 667.574341,701.246399 
	C664.726135,703.850708 661.891785,706.470154 659.051880,709.083557 
	C659.051880,709.083557 658.989075,709.044861 658.716797,709.056030 
	C657.967468,709.405579 657.490417,709.743896 657.013367,710.082275 
	C657.013367,710.082275 657.016418,710.011597 656.733765,710.037537 
	C655.971741,710.404114 655.492249,710.744751 655.012817,711.085388 
	C655.012817,711.085388 654.999878,711.018250 654.792603,711.138672 
	C654.340088,711.521179 654.094910,711.783325 653.849731,712.045471 
	C650.297791,713.426636 646.745789,714.807861 642.479736,716.216309 
	C641.356934,716.523560 640.948120,716.803589 640.539307,717.083557 
	C640.539307,717.083557 640.494324,717.062927 640.063843,717.036377 
	C635.889648,717.667969 632.121155,718.215576 628.416382,719.046936 
	C627.193054,719.321411 626.134094,720.328125 625.000000,721.000000 
	C620.310730,721.000000 615.621521,721.000000 610.466125,721.000000 
z"/>
<path fill="#2F6FAD" opacity="1.000000" stroke="none" 
	d="
M614.600037,1.000002 
	C620.413696,2.286775 625.827393,3.573545 631.619385,4.933978 
	C632.512390,6.344766 633.027039,7.681891 633.729065,9.505947 
	C627.085510,12.053785 621.026123,8.419177 614.378235,7.992698 
	C612.972351,6.687187 611.856934,5.478912 611.039001,4.094825 
	C610.628357,3.399857 610.758850,2.385042 610.822266,1.257437 
	C612.066711,1.000000 613.133362,1.000000 614.600037,1.000002 
z"/>
<path fill="#4180BD" opacity="1.000000" stroke="none" 
	d="
M625.416626,721.000000 
	C626.134094,720.328125 627.193054,719.321411 628.416382,719.046936 
	C632.121155,718.215576 635.889648,717.667969 640.087524,717.030151 
	C637.239136,718.251099 633.936401,719.451843 630.316895,720.826294 
	C628.611084,721.000000 627.222229,721.000000 625.416626,721.000000 
z"/>
<path fill="#2F6FAD" opacity="1.000000" stroke="none" 
	d="
M605.750000,0.999996 
	C605.727905,1.103023 605.455811,1.206053 605.091858,1.154542 
	C605.000000,1.000000 605.500000,1.000000 605.750000,0.999996 
z"/>
<path fill="#2F6FAD" opacity="1.000000" stroke="none" 
	d="
M117.750000,0.999999 
	C117.729774,1.101479 117.459549,1.202961 117.094666,1.152221 
	C117.000000,1.000000 117.500000,1.000000 117.750000,0.999999 
z"/>
<path fill="#FEFEFF" opacity="1.000000" stroke="none" 
	d="
M333.371399,398.723663 
	C326.069885,401.343719 319.937836,400.189911 314.645966,394.909668 
	C289.544586,369.863373 264.349274,344.910645 239.358810,319.754303 
	C232.210281,312.558319 232.431732,302.929443 239.633499,295.684113 
	C266.746979,268.406738 293.927948,241.196045 321.180756,214.057861 
	C328.171417,207.096573 337.761261,207.299118 344.799622,214.323273 
	C369.666046,239.139435 394.495880,263.992340 419.300476,288.870300 
	C426.976074,296.568634 427.136627,306.426544 419.480072,314.113007 
	C392.914124,340.782806 366.251526,367.356445 339.579926,393.920746 
	C337.827087,395.666565 335.690765,397.027313 333.371399,398.723663 
z"/>
<path fill="#FDFDFE" opacity="1.000000" stroke="none" 
	d="
M472.326263,421.664978 
	C507.833984,457.077759 543.100830,492.235413 578.345764,527.414978 
	C584.368469,533.426575 585.968323,541.638367 582.582397,548.434570 
	C579.126770,555.370728 572.206238,559.323303 564.432495,557.816528 
	C561.052307,557.161438 557.351257,555.382507 554.928772,552.974365 
	C500.946930,499.310822 447.136139,445.475281 393.246277,391.719025 
	C388.892944,387.376465 384.203583,383.370758 379.788361,379.316864 
	C388.697998,370.690308 396.782776,362.862457 405.522491,354.400421 
	C427.313568,376.342529 449.695770,398.879883 472.326263,421.664978 
z"/>
<path fill="#FCFDFE" opacity="1.000000" stroke="none" 
	d="
M352.292847,524.382935 
	C361.728302,529.891724 364.825531,542.642944 359.110901,551.490662 
	C355.929382,556.416443 351.203888,558.233704 345.448273,558.224731 
	C317.292755,558.181030 289.137054,558.246338 260.981445,558.256653 
	C226.328354,558.269348 191.674820,558.347778 157.022797,558.157410 
	C153.024948,558.135437 148.544373,557.452942 145.146988,555.545837 
	C138.581482,551.860291 136.397247,542.643738 139.017212,534.078064 
	C141.097076,527.278137 146.693375,523.258667 154.625351,523.253601 
	C218.268738,523.212769 281.912170,523.215576 345.555573,523.263428 
	C347.682556,523.265076 349.809082,523.887024 352.292847,524.382935 
z"/>
<path fill="#FDFDFE" opacity="1.000000" stroke="none" 
	d="
M280.542969,385.458710 
	C289.782196,394.605194 298.831116,403.441986 307.751343,412.406769 
	C315.524139,420.218353 315.340698,429.672302 307.460693,437.447449 
	C304.854126,440.019348 302.361450,442.714508 299.656616,445.177521 
	C292.780121,451.439270 283.843536,451.445038 277.264191,444.918793 
	C248.566727,416.452942 219.924530,387.931091 191.343964,359.347870 
	C183.906570,351.909760 184.240448,342.519775 191.823212,335.104156 
	C194.083420,332.893768 196.341537,330.679260 198.538574,328.406647 
	C206.178528,320.503998 215.413696,320.485260 223.431808,328.471497 
	C242.402496,347.366791 261.343689,366.291656 280.542969,385.458710 
z"/>
<path fill="#FCFDFE" opacity="1.000000" stroke="none" 
	d="
M363.807556,163.631927 
	C372.335785,159.458206 378.175354,160.267426 384.518463,166.573624 
	C412.718628,194.609619 440.897217,222.667465 469.019897,250.781143 
	C476.058899,257.817902 475.953186,267.261017 469.012268,274.358704 
	C466.685272,276.738281 464.285889,279.047058 461.918823,281.387421 
	C453.443695,289.766846 444.764557,289.845612 436.218842,281.370514 
	C422.509277,267.774231 408.935577,254.041077 395.265503,240.404816 
	C381.833038,227.005554 368.395782,213.610519 354.877930,200.297607 
	C344.833313,190.405212 344.761261,182.053940 354.876953,172.139297 
	C357.725006,169.347839 360.628693,166.613113 363.807556,163.631927 
z"/>
<path fill="#508ECA" opacity="1.000000" stroke="none" 
	d="
M101.912842,3.162027 
	C102.440407,2.846376 102.967979,2.530725 103.804169,2.198202 
	C107.725510,2.787017 111.349174,3.336337 114.943901,4.034641 
	C115.949921,4.230070 116.870659,4.864568 117.939224,5.672524 
	C113.025383,6.733326 108.002831,7.419260 102.425995,7.727088 
	C100.397339,6.933805 98.844627,5.984640 97.460945,6.187640 
	C86.041130,7.863049 75.254807,11.458879 65.565170,17.840918 
	C64.301186,18.673431 63.799107,20.662720 62.944122,22.116207 
	C60.184338,23.992596 57.424549,25.868984 54.041962,27.903957 
	C52.690166,28.110275 51.961170,28.158009 50.981003,28.222191 
	C53.141277,25.184772 55.031017,22.527733 56.920757,19.870693 
	C56.920757,19.870693 56.986458,19.909342 57.308277,19.936260 
	C58.416508,19.298061 59.202919,18.632946 59.989330,17.967831 
	C59.989330,17.967831 60.000916,18.003334 60.287971,17.966820 
	C61.044266,17.589340 61.513504,17.248373 61.982742,16.907406 
	C61.982742,16.907406 61.990967,16.978422 62.186321,16.860615 
	C62.582226,16.467632 62.782776,16.192455 62.983326,15.917280 
	C62.983326,15.917279 62.982063,15.987390 63.254898,15.964653 
	C64.019371,15.631474 64.511017,15.321033 65.002663,15.010592 
	C75.778015,11.068062 86.553368,7.125530 97.944839,3.410577 
	C99.678261,3.479446 100.795547,3.320736 101.912842,3.162027 
z"/>
<path fill="#5797D5" opacity="1.000000" stroke="none" 
	d="
M63.310616,22.058941 
	C63.799107,20.662720 64.301186,18.673431 65.565170,17.840918 
	C75.254807,11.458879 86.041130,7.863049 97.460945,6.187640 
	C98.844627,5.984640 100.397339,6.933805 101.990112,7.729774 
	C102.108521,8.110564 102.113098,8.151259 101.749573,8.117255 
	C100.593399,8.435472 99.800758,8.787694 99.008110,9.139915 
	C98.592422,9.157234 98.176743,9.174552 97.129654,9.186274 
	C95.959785,9.736607 95.421326,10.292538 94.882866,10.848469 
	C86.428818,13.638732 77.958282,16.380678 69.532654,19.254274 
	C67.504395,19.946022 65.624977,21.074202 63.310616,22.058941 
z"/>
<path fill="#4180BD" opacity="1.000000" stroke="none" 
	d="
M659.415283,709.132080 
	C661.891785,706.470154 664.726135,703.850708 667.574341,701.246399 
	C668.680664,700.234924 669.818298,699.257690 670.333557,697.369202 
	C669.435303,697.557556 668.536987,697.745911 667.307739,697.955383 
	C667.255127,697.401367 667.382446,696.630127 667.835144,696.281433 
	C672.296875,692.844727 676.812683,689.478210 681.806396,686.377441 
	C682.223083,688.934692 682.146484,691.206299 682.069946,693.477966 
	C682.128052,693.729858 682.042603,693.915955 681.336975,694.161377 
	C680.593079,694.630798 680.325867,694.975037 680.058594,695.319336 
	C673.298645,699.939697 666.538635,704.560120 659.415283,709.132080 
z"/>
<path fill="#2F6FAD" opacity="1.000000" stroke="none" 
	d="
M682.383057,693.307495 
	C682.146484,691.206299 682.223083,688.934692 682.149780,686.320312 
	C684.874512,679.714478 691.272766,677.413635 695.360596,672.514771 
	C695.728882,672.817383 696.097229,673.119934 696.465576,673.422546 
	C696.341370,674.832397 696.217163,676.242310 696.128906,678.045410 
	C691.675354,683.338135 687.185730,688.237549 682.383057,693.307495 
z"/>
<path fill="#2F6FAD" opacity="1.000000" stroke="none" 
	d="
M26.096741,48.203407 
	C31.103531,42.316467 36.246498,36.749119 41.684708,31.401321 
	C43.114082,33.749615 38.025494,35.909885 42.012390,38.024178 
	C37.580101,42.688995 33.147812,47.353817 28.280771,52.476192 
	C27.355663,50.690361 26.794289,49.606678 26.096741,48.203407 
z"/>
<path fill="#4180BD" opacity="1.000000" stroke="none" 
	d="
M42.352249,37.962902 
	C38.025494,35.909885 43.114082,33.749615 41.982872,31.240452 
	C46.731331,27.223713 51.476875,23.587397 56.571587,19.910885 
	C55.031017,22.527733 53.141277,25.184772 50.981003,28.222191 
	C51.961170,28.158009 52.690166,28.110275 53.734184,28.050850 
	C50.263504,31.326649 46.477802,34.614136 42.352249,37.962902 
z"/>
<path fill="#4180BD" opacity="1.000000" stroke="none" 
	d="
M658.718140,702.105103 
	C657.916382,703.028687 656.766846,703.959778 655.267334,704.897522 
	C656.068359,703.973694 657.219421,703.043152 658.718140,702.105103 
z"/>
<path fill="#3E7DBB" opacity="1.000000" stroke="none" 
	d="
M99.227623,9.348503 
	C99.800758,8.787694 100.593399,8.435472 101.734604,8.132349 
	C101.204483,8.639995 100.325813,9.098544 99.227623,9.348503 
z"/>
<path fill="#4180BD" opacity="1.000000" stroke="none" 
	d="
M620.797974,715.723938 
	C620.140869,716.150696 619.280823,716.350037 618.214722,716.335205 
	C618.870728,715.912903 619.732910,715.704712 620.797974,715.723938 
z"/>
<path fill="#4180BD" opacity="1.000000" stroke="none" 
	d="
M665.754944,698.118286 
	C665.577881,698.701721 665.080627,699.298889 664.266296,699.921143 
	C664.444458,699.341553 664.939575,698.736816 665.754944,698.118286 
z"/>
<path fill="#4180BD" opacity="1.000000" stroke="none" 
	d="
M633.804565,712.181030 
	C633.583069,712.750671 633.044128,713.300842 632.186890,713.839478 
	C632.408081,713.272461 632.947571,712.717041 633.804565,712.181030 
z"/>
<path fill="#4180BD" opacity="1.000000" stroke="none" 
	d="
M625.822021,714.748901 
	C625.494263,715.254272 624.987915,715.562622 624.167969,715.835938 
	C624.450806,715.384583 625.047119,714.968262 625.822021,714.748901 
z"/>
<path fill="#3E7DBB" opacity="1.000000" stroke="none" 
	d="
M95.197540,10.857054 
	C95.421326,10.292538 95.959785,9.736607 96.818367,9.208079 
	C96.596405,9.778868 96.054314,10.322253 95.197540,10.857054 
z"/>
<path fill="#4180BD" opacity="1.000000" stroke="none" 
	d="
M657.344238,710.122925 
	C657.490417,709.743896 657.967468,709.405579 658.753052,709.061462 
	C658.599365,709.424988 658.137207,709.794312 657.344238,710.122925 
z"/>
<path fill="#4180BD" opacity="1.000000" stroke="none" 
	d="
M655.345703,711.137695 
	C655.492249,710.744751 655.971741,710.404114 656.761841,710.059143 
	C656.607849,710.433228 656.143250,710.811646 655.345703,711.137695 
z"/>
<path fill="#2F6FAD" opacity="1.000000" stroke="none" 
	d="
M680.350464,695.174561 
	C680.325867,694.975037 680.593079,694.630798 681.172485,694.163391 
	C681.203857,694.370056 680.923035,694.699951 680.350464,695.174561 
z"/>
<path fill="#4180BD" opacity="1.000000" stroke="none" 
	d="
M654.158081,712.030396 
	C654.094910,711.783325 654.340088,711.521179 654.826660,711.139893 
	C654.867554,711.352295 654.666992,711.683777 654.158081,712.030396 
z"/>
<path fill="#4180BD" opacity="1.000000" stroke="none" 
	d="
M640.949585,717.130737 
	C640.948120,716.803589 641.356934,716.523560 642.123169,716.137207 
	C642.106995,716.413269 641.733459,716.795654 640.949585,717.130737 
z"/>
<path fill="#4180BD" opacity="1.000000" stroke="none" 
	d="
M59.677345,18.028111 
	C59.202919,18.632946 58.416508,19.298061 57.271950,19.947792 
	C57.730991,19.317736 58.548176,18.703062 59.677345,18.028111 
z"/>
<path fill="#3E7DBB" opacity="1.000000" stroke="none" 
	d="
M101.535416,3.097370 
	C100.795547,3.320736 99.678261,3.479446 98.337173,3.431339 
	C99.128258,3.160586 100.143120,3.096649 101.535416,3.097370 
z"/>
<path fill="#4180BD" opacity="1.000000" stroke="none" 
	d="
M61.681293,16.927662 
	C61.513504,17.248373 61.044266,17.589340 60.271034,17.958923 
	C60.437973,17.640999 60.908909,17.294458 61.681293,16.927662 
z"/>
<path fill="#4180BD" opacity="1.000000" stroke="none" 
	d="
M64.695602,15.031348 
	C64.511017,15.321033 64.019371,15.631474 63.223610,15.948828 
	C63.409180,15.654528 63.898861,15.353317 64.695602,15.031348 
z"/>
<path fill="#4180BD" opacity="1.000000" stroke="none" 
	d="
M62.737713,16.020758 
	C62.782776,16.192455 62.582226,16.467632 62.150597,16.859394 
	C62.110378,16.692068 62.301239,16.408152 62.737713,16.020758 
z"/>
</svg>