<svg version="1.1" id="Layer_1" xmlns="http://www.w3.org/2000/svg" xmlns:xlink="http://www.w3.org/1999/xlink" x="0px" y="0px"
	 width="100%" viewBox="0 0 720 720" enable-background="new 0 0 720 720" xml:space="preserve">
<path fill="#2666A4" opacity="1.000000" stroke="none" 
	d="
M341.000000,721.000000 
	C227.333328,721.000000 114.166664,721.000000 1.000000,721.000000 
	C1.000000,481.000000 1.000000,241.000000 1.000000,1.000000 
	C241.000000,1.000000 481.000000,1.000000 721.000000,1.000000 
	C721.000000,241.000000 721.000000,481.000000 721.000000,721.000000 
	C594.500000,721.000000 468.000000,721.000000 341.000000,721.000000 
M151.156479,523.928894 
	C147.746262,526.377991 142.959412,528.090454 141.181717,531.412964 
	C135.659561,541.734009 138.389099,558.949768 156.503998,558.837585 
	C219.262589,558.448792 282.025055,558.687744 344.786072,558.673279 
	C346.445129,558.672852 348.123199,558.633972 349.759644,558.391724 
	C355.161224,557.592041 359.303284,554.600830 360.910614,549.533875 
	C364.063385,539.595032 362.958313,527.274475 349.342499,523.002319 
	C347.589996,522.668518 345.837769,522.044189 344.084991,522.042786 
	C281.976349,521.992737 219.867691,521.985962 157.759140,522.068359 
	C155.738708,522.070984 153.719589,523.066528 151.156479,523.928894 
M288.771942,247.270630 
	C272.877380,263.193970 256.957306,279.091949 241.098572,295.050903 
	C232.607132,303.595978 232.562042,312.726135 241.119827,321.301422 
	C265.370209,345.601440 289.663727,369.858826 314.033813,394.038757 
	C323.021484,402.956299 331.525696,402.900238 340.579620,393.898071 
	C367.052155,367.576782 393.462891,341.193085 419.826141,314.762268 
	C427.933624,306.634033 427.774261,296.874725 419.661621,288.756683 
	C395.042969,264.121704 370.412109,239.498901 345.787628,214.869781 
	C338.221344,207.302032 328.736450,207.303589 321.078247,214.940125 
	C310.457092,225.531235 299.871094,236.157593 288.771942,247.270630 
M521.268066,519.229675 
	C532.710388,530.637878 544.116821,542.082458 555.606201,553.443054 
	C565.290588,563.018921 581.266785,558.748474 584.542114,545.653870 
	C586.420288,538.145142 583.624939,532.190674 578.211426,526.804749 
	C526.015015,474.874878 473.920532,422.842529 421.821930,370.814423 
	C416.315399,365.315338 410.969177,359.655701 405.892578,354.424988 
	C397.294495,362.997620 389.324768,370.943756 381.270172,378.974518 
	C427.592651,425.383514 474.179535,472.057434 521.268066,519.229675 
M312.788391,419.048004 
	C308.294739,413.965454 304.046478,408.638397 299.266418,403.841248 
	C273.980316,378.464783 248.591446,353.190460 223.167053,327.952393 
	C216.004837,320.842651 206.772644,321.015930 199.659531,328.107056 
	C197.181763,330.577179 194.741394,333.084808 192.267426,335.558746 
	C184.679596,343.146423 184.472687,352.214722 192.068878,359.813080 
	C220.578461,388.330750 249.145721,416.790985 277.760040,445.203552 
	C284.453583,451.849884 293.688934,451.773468 300.588898,445.262726 
	C303.375092,442.633728 305.992065,439.826416 308.729736,437.144806 
	C313.737671,432.239502 315.262451,426.489899 312.788391,419.048004 
M395.967224,177.532974 
	C392.075623,173.653137 388.280121,169.670700 384.271027,165.916290 
	C377.394348,159.476517 368.823242,159.519531 361.892426,165.952286 
	C359.331512,168.329178 356.951416,170.900818 354.486969,173.381775 
	C345.773041,182.154053 345.737274,190.676514 354.496918,199.410843 
	C377.608978,222.456070 400.755951,245.466293 423.888245,268.491272 
	C428.844482,273.424530 433.628937,278.545990 438.792633,283.251465 
	C445.940735,289.765289 454.632996,289.409576 461.558197,282.682709 
	C464.066498,280.246216 466.535980,277.769745 469.021240,275.309570 
	C476.864014,267.545685 476.892151,258.160217 469.022430,250.311569 
	C444.851044,226.204987 420.657654,202.120438 395.967224,177.532974 
z"/>
<path fill="#FEFEFF" opacity="1.000000" stroke="none" 
	d="
M289.020996,247.019745 
	C299.871094,236.157593 310.457092,225.531235 321.078247,214.940125 
	C328.736450,207.303589 338.221344,207.302032 345.787628,214.869781 
	C370.412109,239.498901 395.042969,264.121704 419.661621,288.756683 
	C427.774261,296.874725 427.933624,306.634033 419.826141,314.762268 
	C393.462891,341.193085 367.052155,367.576782 340.579620,393.898071 
	C331.525696,402.900238 323.021484,402.956299 314.033813,394.038757 
	C289.663727,369.858826 265.370209,345.601440 241.119827,321.301422 
	C232.562042,312.726135 232.607132,303.595978 241.098572,295.050903 
	C256.957306,279.091949 272.877380,263.193970 289.020996,247.019745 
z"/>
<path fill="#FCFDFE" opacity="1.000000" stroke="none" 
	d="
M521.017212,518.980530 
	C474.179535,472.057434 427.592651,425.383514 381.270172,378.974518 
	C389.324768,370.943756 397.294495,362.997620 405.892578,354.424988 
	C410.969177,359.655701 416.315399,365.315338 421.821930,370.814423 
	C473.920532,422.842529 526.015015,474.874878 578.211426,526.804749 
	C583.624939,532.190674 586.420288,538.145142 584.542114,545.653870 
	C581.266785,558.748474 565.290588,563.018921 555.606201,553.443054 
	C544.116821,542.082458 532.710388,530.637878 521.017212,518.980530 
z"/>
<path fill="#FCFDFE" opacity="1.000000" stroke="none" 
	d="
M349.911957,523.630493 
	C362.958313,527.274475 364.063385,539.595032 360.910614,549.533875 
	C359.303284,554.600830 355.161224,557.592041 349.759644,558.391724 
	C348.123199,558.633972 346.445129,558.672852 344.786072,558.673279 
	C282.025055,558.687744 219.262589,558.448792 156.503998,558.837585 
	C138.389099,558.949768 135.659561,541.734009 141.181717,531.412964 
	C142.959412,528.090454 147.746262,526.377991 151.923004,523.804504 
	C218.430344,523.663574 284.171143,523.647034 349.911957,523.630493 
z"/>
<path fill="#FDFEFE" opacity="1.000000" stroke="none" 
	d="
M312.920532,419.422852 
	C315.262451,426.489899 313.737671,432.239502 308.729736,437.144806 
	C305.992065,439.826416 303.375092,442.633728 300.588898,445.262726 
	C293.688934,451.773468 284.453583,451.849884 277.760040,445.203552 
	C249.145721,416.790985 220.578461,388.330750 192.068878,359.813080 
	C184.472687,352.214722 184.679596,343.146423 192.267426,335.558746 
	C194.741394,333.084808 197.181763,330.577179 199.659531,328.107056 
	C206.772644,321.015930 216.004837,320.842651 223.167053,327.952393 
	C248.591446,353.190460 273.980316,378.464783 299.266418,403.841248 
	C304.046478,408.638397 308.294739,413.965454 312.920532,419.422852 
z"/>
<path fill="#FDFEFE" opacity="1.000000" stroke="none" 
	d="
M396.220032,177.780151 
	C420.657654,202.120438 444.851044,226.204987 469.022430,250.311569 
	C476.892151,258.160217 476.864014,267.545685 469.021240,275.309570 
	C466.535980,277.769745 464.066498,280.246216 461.558197,282.682709 
	C454.632996,289.409576 445.940735,289.765289 438.792633,283.251465 
	C433.628937,278.545990 428.844482,273.424530 423.888245,268.491272 
	C400.755951,245.466293 377.608978,222.456070 354.496918,199.410843 
	C345.737274,190.676514 345.773041,182.154053 354.486969,173.381775 
	C356.951416,170.900818 359.331512,168.329178 361.892426,165.952286 
	C368.823242,159.519531 377.394348,159.476517 384.271027,165.916290 
	C388.280121,169.670700 392.075623,173.653137 396.220032,177.780151 
z"/>
<path fill="#1D5B99" opacity="1.000000" stroke="none" 
	d="
M349.627228,523.316406 
	C284.171143,523.647034 218.430344,523.663574 152.194702,523.639648 
	C153.719589,523.066528 155.738708,522.070984 157.759140,522.068359 
	C219.867691,521.985962 281.976349,521.992737 344.084991,522.042786 
	C345.837769,522.044189 347.589996,522.668518 349.627228,523.316406 
z"/>
</svg>